<svg xmlns="http://www.w3.org/2000/svg" xmlns:xlink="http://www.w3.org/1999/xlink" width="800" zoomAndPan="magnify" viewBox="0 0 600 599.999999" height="800" preserveAspectRatio="xMidYMid meet" version="1.0"><defs><clipPath id="4c9b46a33f"><path d="M 109.308594 280 L 378 280 L 378 516.75 L 109.308594 516.75 Z M 109.308594 280 " clip-rule="nonzero"/></clipPath><clipPath id="47be5776a9"><path d="M 197 200 L 213 200 L 213 227.566406 L 197 227.566406 Z M 197 200 " clip-rule="nonzero"/></clipPath><clipPath id="86db754152"><path d="M 87 112.066406 L 110 112.066406 L 110 134 L 87 134 Z M 87 112.066406 " clip-rule="nonzero"/></clipPath><clipPath id="455d6abcdb"><path d="M 171 120 L 213.566406 120 L 213.566406 164 L 171 164 Z M 171 120 " clip-rule="nonzero"/></clipPath></defs><path fill="#b1b9c6" d="M 524.835938 144.636719 C 515.042969 126.304688 462.46875 138.285156 438.96875 144.699219 C 429.695312 140.109375 417.300781 135.621094 402.851562 131.304688 C 388.441406 126.859375 375.640625 123.703125 365.378906 122.359375 C 349.40625 103.957031 312.363281 64.789062 294.039062 74.582031 C 275.839844 84.300781 280.148438 127.464844 283.148438 147.023438 C 268.503906 160.4375 259.535156 177.269531 254.855469 192.6875 C 250.804688 206.023438 248.351562 219.820312 247.503906 234.105469 C 245.851562 261.992188 260.339844 288.1875 284.925781 301.445312 C 300.664062 309.925781 316.835938 316.976562 333.429688 322.648438 C 321.082031 331.863281 313.089844 346.589844 313.089844 363.179688 C 313.089844 391.097656 335.722656 413.730469 363.644531 413.730469 C 391.566406 413.730469 414.199219 391.097656 414.199219 363.179688 C 414.199219 354.171875 411.832031 345.71875 407.699219 338.394531 C 434.996094 340.457031 460.953125 326.804688 474.839844 303.113281 C 482.074219 290.765625 487.707031 277.933594 491.753906 264.597656 C 496.433594 249.183594 498.335938 230.210938 493.621094 210.925781 C 506.964844 196.34375 534.5625 162.839844 524.835938 144.636719 Z M 524.835938 144.636719 " fill-opacity="1" fill-rule="nonzero"/><path fill="#91a2b5" d="M 414.285156 145.167969 C 407.585938 167.238281 395.738281 183.167969 387.84375 180.773438 C 379.9375 178.371094 378.941406 158.542969 385.640625 136.472656 C 386.558594 133.449219 387.570312 130.542969 388.664062 127.792969 C 398.105469 130.195312 407.414062 133.023438 416.59375 136.289062 C 415.972656 139.183594 415.199219 142.160156 414.285156 145.167969 Z M 414.285156 145.167969 " fill-opacity="1" fill-rule="nonzero"/><path fill="#91a2b5" d="M 385.730469 128.582031 C 379.035156 150.636719 367.199219 166.589844 359.289062 164.1875 C 351.683594 161.878906 350.484375 143.335938 356.40625 122.246094 C 361.714844 122.453125 367.078125 123.085938 372.441406 124.144531 C 377.035156 125.058594 381.605469 126.058594 386.140625 127.175781 C 386.011719 127.652344 385.875 128.109375 385.730469 128.582031 Z M 385.730469 128.582031 " fill-opacity="1" fill-rule="nonzero"/><path fill="#91a2b5" d="M 446.554688 149.40625 C 439.761719 170.324219 428.425781 185.171875 420.785156 182.855469 C 412.878906 180.453125 411.90625 160.613281 418.597656 138.558594 C 418.742188 138.085938 418.882812 137.632812 419.042969 137.164062 C 424.082031 138.988281 429.089844 140.96875 434.046875 143.066406 C 438.414062 144.90625 442.585938 147.039062 446.554688 149.40625 Z M 446.554688 149.40625 " fill-opacity="1" fill-rule="nonzero"/><path fill="#ffffff" d="M 498.054688 173.585938 C 498.054688 173.585938 498.765625 179.453125 497.378906 185.359375 C 496.105469 190.824219 491.636719 193.933594 486.894531 194.359375 C 481.085938 181.578125 472.636719 170.003906 462.007812 160.523438 C 463.007812 157.652344 465.089844 155.164062 468.109375 153.734375 C 480.226562 147.984375 496.183594 142.660156 504.328125 149.265625 C 518.515625 160.789062 498.054688 173.585938 498.054688 173.585938 Z M 498.054688 173.585938 " fill-opacity="1" fill-rule="nonzero"/><path fill="#ffffff" d="M 300.199219 113.527344 C 300.199219 113.527344 296.347656 118.007812 294.214844 123.691406 C 292.234375 128.9375 294.222656 134.007812 297.929688 136.996094 C 309.863281 129.601562 323.316406 124.679688 337.425781 122.707031 C 338.191406 119.761719 337.84375 116.539062 336.128906 113.671875 C 329.25 102.15625 318.945312 88.855469 308.503906 89.820312 C 290.308594 91.515625 300.199219 113.527344 300.199219 113.527344 Z M 300.199219 113.527344 " fill-opacity="1" fill-rule="nonzero"/><path fill="#678490" d="M 529.089844 142.355469 C 518.742188 122.984375 475.03125 129.992188 439.441406 139.570312 C 430.5 135.324219 418.734375 131.007812 404.277344 126.691406 C 389.824219 122.234375 377.628906 119.273438 367.832031 117.835938 C 343.5625 90.097656 311.105469 59.976562 291.757812 70.316406 C 272.136719 80.800781 274.464844 120.644531 278 145.21875 C 261.550781 161.078125 253.738281 179.746094 250.234375 191.289062 C 246.09375 204.9375 243.550781 219.246094 242.6875 233.824219 C 240.929688 263.449219 256.609375 291.660156 282.636719 305.695312 C 301.816406 316.03125 321.90625 324.417969 342.347656 330.621094 C 362.789062 336.824219 384.152344 341.023438 405.84375 343.09375 C 408.230469 343.320312 410.609375 343.433594 412.980469 343.433594 C 439.84375 343.433594 465.210938 329.082031 479.003906 305.554688 C 486.382812 292.960938 492.226562 279.65625 496.371094 266.003906 C 499.875 254.464844 503.757812 234.601562 498.902344 212.277344 C 515.488281 193.800781 539.558594 161.949219 529.089844 142.355469 Z M 487.132812 263.195312 C 483.210938 276.125 477.671875 288.730469 470.671875 300.671875 C 458.621094 321.234375 436.457031 333.777344 412.992188 333.777344 C 410.921875 333.777344 408.839844 333.679688 406.757812 333.480469 C 385.710938 331.46875 364.980469 327.398438 345.152344 321.378906 C 325.324219 315.363281 305.832031 307.222656 287.21875 297.195312 C 264.484375 284.9375 250.789062 260.285156 252.324219 234.394531 C 253.144531 220.574219 255.550781 207.015625 259.476562 194.089844 C 263.804688 179.824219 275.328125 153.589844 303.847656 138.171875 C 306.191406 136.902344 307.066406 133.972656 305.796875 131.628906 C 304.527344 129.28125 301.597656 128.410156 299.253906 129.675781 C 294.703125 132.140625 290.554688 134.851562 286.753906 137.730469 C 282.996094 106.316406 286.5 84.074219 296.308594 78.832031 C 305.867188 73.722656 327.554688 88.152344 353.945312 116.820312 C 348.066406 116.824219 342.316406 117.164062 336.816406 117.875 C 334.171875 118.214844 332.304688 120.632812 332.644531 123.277344 C 332.984375 125.925781 335.410156 127.78125 338.050781 127.453125 C 343.9375 126.695312 350.140625 126.367188 356.488281 126.476562 C 366.59375 126.660156 381.714844 129.835938 401.472656 135.929688 C 421.242188 141.835938 435.578125 147.601562 444.074219 153.0625 C 449.421875 156.503906 454.398438 160.226562 458.863281 164.125 C 459.777344 164.921875 460.910156 165.3125 462.035156 165.3125 C 463.382812 165.3125 464.722656 164.753906 465.675781 163.660156 C 467.429688 161.652344 467.222656 158.601562 465.214844 156.847656 C 461.039062 153.207031 456.464844 149.710938 451.582031 146.441406 C 488.957031 137.445312 515.542969 137.488281 520.578125 146.90625 C 525.808594 156.699219 516.359375 177.136719 495.789062 201.175781 C 494.230469 196.671875 492.292969 192.113281 489.875 187.539062 C 488.628906 185.183594 485.714844 184.28125 483.351562 185.523438 C 480.992188 186.765625 480.089844 189.6875 481.335938 192.046875 C 496.46875 220.71875 491.464844 248.929688 487.132812 263.195312 Z M 487.132812 263.195312 " fill-opacity="1" fill-rule="nonzero"/><path fill="#605c5d" d="M 433.597656 258.4375 C 435.824219 251.097656 431.679688 243.34375 424.34375 241.117188 C 417.003906 238.890625 409.25 243.03125 407.023438 250.371094 C 404.792969 257.710938 408.9375 265.464844 416.277344 267.691406 C 423.613281 269.917969 431.371094 265.777344 433.597656 258.4375 Z M 433.597656 258.4375 " fill-opacity="1" fill-rule="nonzero"/><path fill="#605c5d" d="M 333.199219 227.960938 C 335.425781 220.625 331.28125 212.871094 323.945312 210.640625 C 316.605469 208.414062 308.851562 212.558594 306.625 219.894531 C 304.394531 227.234375 308.539062 234.988281 315.878906 237.214844 C 323.214844 239.441406 330.96875 235.300781 333.199219 227.960938 Z M 333.199219 227.960938 " fill-opacity="1" fill-rule="nonzero"/><path fill="#91a2b5" d="M 448.085938 288.699219 C 447.621094 288.699219 447.148438 288.632812 446.683594 288.492188 L 425.6875 282.117188 C 423.136719 281.34375 421.695312 278.648438 422.472656 276.097656 C 423.246094 273.546875 425.941406 272.101562 428.492188 272.878906 L 449.488281 279.25 C 452.039062 280.027344 453.480469 282.722656 452.707031 285.273438 C 452.070312 287.355469 450.15625 288.699219 448.085938 288.699219 Z M 448.085938 288.699219 " fill-opacity="1" fill-rule="nonzero"/><path fill="#91a2b5" d="M 438.277344 307.261719 C 437.261719 307.261719 436.234375 306.941406 435.359375 306.277344 L 420.113281 294.703125 C 417.992188 293.089844 417.578125 290.0625 419.1875 287.9375 C 420.800781 285.8125 423.832031 285.398438 425.953125 287.011719 L 441.199219 298.589844 C 443.324219 300.203125 443.738281 303.230469 442.125 305.355469 C 441.175781 306.605469 439.734375 307.261719 438.277344 307.261719 Z M 438.277344 307.261719 " fill-opacity="1" fill-rule="nonzero"/><path fill="#91a2b5" d="M 301.4375 244.183594 C 300.972656 244.183594 300.503906 244.117188 300.035156 243.976562 L 279.039062 237.601562 C 276.488281 236.828125 275.046875 234.132812 275.820312 231.582031 C 276.597656 229.03125 279.289062 227.589844 281.84375 228.363281 L 302.839844 234.734375 C 305.390625 235.511719 306.832031 238.207031 306.054688 240.757812 C 305.421875 242.84375 303.507812 244.183594 301.4375 244.183594 Z M 301.4375 244.183594 " fill-opacity="1" fill-rule="nonzero"/><path fill="#91a2b5" d="M 278.265625 258.691406 C 275.730469 258.691406 273.605469 256.71875 273.453125 254.152344 C 273.292969 251.492188 275.320312 249.207031 277.980469 249.046875 L 297.089844 247.898438 C 299.761719 247.730469 302.039062 249.765625 302.199219 252.425781 C 302.359375 255.089844 300.332031 257.375 297.671875 257.535156 L 278.5625 258.683594 C 278.460938 258.691406 278.363281 258.691406 278.265625 258.691406 Z M 278.265625 258.691406 " fill-opacity="1" fill-rule="nonzero"/><path fill="#ffffff" d="M 420.875 227 C 420.410156 227 419.9375 226.933594 419.46875 226.789062 L 408.457031 223.445312 C 405.90625 222.671875 404.464844 219.976562 405.238281 217.425781 C 406.015625 214.875 408.710938 213.433594 411.261719 214.207031 L 422.273438 217.550781 C 424.824219 218.324219 426.265625 221.019531 425.492188 223.574219 C 424.859375 225.65625 422.945312 227 420.875 227 Z M 420.875 227 " fill-opacity="1" fill-rule="nonzero"/><path fill="#ffffff" d="M 348.375 204.992188 C 347.910156 204.992188 347.4375 204.925781 346.972656 204.78125 L 335.957031 201.441406 C 333.40625 200.664062 331.964844 197.96875 332.738281 195.417969 C 333.515625 192.867188 336.214844 191.425781 338.761719 192.199219 L 349.777344 195.542969 C 352.328125 196.316406 353.769531 199.015625 352.992188 201.566406 C 352.359375 203.648438 350.445312 204.992188 348.375 204.992188 Z M 348.375 204.992188 " fill-opacity="1" fill-rule="nonzero"/><path fill="#678490" d="M 325.578125 271.730469 C 328.285156 277.949219 333.1875 284.082031 339.675781 288.800781 C 343.785156 291.792969 348.523438 294.195312 353.742188 295.722656 C 367.246094 299.621094 380.957031 296.597656 390.085938 290.347656 C 391.722656 289.226562 393.203125 288.011719 394.515625 286.707031 C 397.28125 283.960938 399.265625 280.835938 400.21875 277.558594 C 405.839844 258.148438 388.917969 252.773438 367.910156 246.699219 C 346.878906 240.625 329.941406 238.511719 324.105469 255.558594 C 322.472656 260.332031 323.113281 266.066406 325.578125 271.730469 Z M 325.578125 271.730469 " fill-opacity="1" fill-rule="nonzero"/><path fill="#fd80a6" d="M 394.515625 286.703125 C 385.882812 295.300781 369.660156 300.320312 353.742188 295.71875 C 340.257812 291.816406 329.996094 281.878906 325.570312 271.734375 C 337.914062 265.941406 364.226562 259.394531 394.515625 286.703125 Z M 394.515625 286.703125 " fill-opacity="1" fill-rule="nonzero"/><path fill="#678490" d="M 396.960938 253.277344 C 396.945312 253.265625 396.933594 253.25 396.917969 253.238281 C 391.234375 249.054688 383.4375 246.277344 373.933594 243.433594 L 375.25 239.03125 L 376.476562 239.402344 C 376.945312 239.546875 377.417969 239.613281 377.882812 239.613281 C 379.953125 239.613281 381.867188 238.269531 382.5 236.1875 C 383.277344 233.636719 381.835938 230.9375 379.28125 230.164062 L 367.488281 226.585938 C 364.941406 225.808594 362.242188 227.25 361.46875 229.804688 C 360.691406 232.355469 362.132812 235.050781 364.683594 235.824219 L 366.011719 236.226562 L 364.652344 240.78125 C 355.421875 238.324219 345.511719 236.464844 337.398438 238.015625 C 337.390625 238.019531 337.386719 238.019531 337.378906 238.019531 C 328.597656 239.703125 322.59375 245.078125 319.539062 254 C 317.304688 260.519531 318.304688 268.386719 322.347656 276.15625 C 328.292969 287.585938 339.527344 296.632812 352.402344 300.351562 C 356.902344 301.652344 361.539062 302.296875 366.164062 302.296875 C 372.710938 302.296875 379.230469 301 385.285156 298.4375 C 395.375 294.15625 402.515625 287.039062 404.863281 278.902344 C 407.992188 268.082031 405.332031 259.460938 396.960938 253.277344 Z M 395.585938 276.21875 C 391.773438 289.421875 370.125 295.421875 355.082031 291.074219 C 344.851562 288.117188 335.589844 280.691406 330.910156 271.699219 C 328.140625 266.375 327.324219 261.0625 328.671875 257.125 C 330.601562 251.492188 333.847656 248.523438 339.203125 247.503906 L 339.203125 247.5 C 339.203125 247.5 339.207031 247.5 339.207031 247.5 C 346.679688 246.074219 357.234375 248.636719 366.570312 251.335938 C 377.277344 254.429688 385.886719 257.109375 391.191406 261.011719 L 391.191406 261.015625 C 396.339844 264.804688 397.613281 269.210938 395.585938 276.21875 Z M 395.585938 276.21875 " fill-opacity="1" fill-rule="nonzero"/><path fill="#777677" d="M 349.929688 285.414062 L 136.902344 285.414062 C 124.488281 285.414062 114.421875 295.476562 114.421875 307.890625 L 114.421875 454.839844 C 114.421875 467.253906 124.488281 477.320312 136.902344 477.320312 L 207.007812 477.320312 L 187.152344 491.847656 C 178.480469 498.191406 182.96875 511.921875 193.710938 511.921875 L 293.121094 511.921875 C 303.863281 511.921875 308.351562 498.1875 299.679688 491.847656 L 279.824219 477.320312 L 349.925781 477.320312 C 362.34375 477.320312 372.410156 467.253906 372.410156 454.839844 L 372.410156 307.890625 C 372.410156 295.476562 362.34375 285.414062 349.929688 285.414062 Z M 349.929688 285.414062 " fill-opacity="1" fill-rule="nonzero"/><path fill="#65e1e9" d="M 352.835938 315.878906 L 352.835938 429.996094 C 352.835938 436.015625 347.957031 440.875 341.9375 440.875 L 144.886719 440.875 C 138.867188 440.875 133.992188 436.015625 133.992188 429.996094 L 133.992188 315.878906 C 133.992188 309.859375 138.867188 304.980469 144.886719 304.980469 L 341.9375 304.980469 C 347.957031 304.984375 352.835938 309.859375 352.835938 315.878906 Z M 352.835938 315.878906 " fill-opacity="1" fill-rule="nonzero"/><path fill="#605c5d" d="M 341.945312 445.710938 L 144.886719 445.710938 C 136.222656 445.710938 129.167969 438.660156 129.167969 429.992188 L 129.167969 315.875 C 129.167969 307.210938 136.222656 300.15625 144.886719 300.15625 L 341.945312 300.15625 C 350.613281 300.15625 357.664062 307.210938 357.664062 315.875 L 357.664062 429.992188 C 357.664062 438.660156 350.613281 445.710938 341.945312 445.710938 Z M 144.886719 309.8125 C 141.542969 309.8125 138.824219 312.53125 138.824219 315.875 L 138.824219 429.992188 C 138.824219 433.335938 141.542969 436.054688 144.886719 436.054688 L 341.945312 436.054688 C 345.289062 436.054688 348.007812 433.335938 348.007812 429.992188 L 348.007812 315.875 C 348.007812 312.535156 345.289062 309.8125 341.945312 309.8125 Z M 144.886719 309.8125 " fill-opacity="1" fill-rule="nonzero"/><g clip-path="url(#4c9b46a33f)"><path fill="#605c5d" d="M 349.929688 280.582031 L 136.902344 280.582031 C 121.84375 280.582031 109.59375 292.832031 109.59375 307.890625 L 109.59375 454.839844 C 109.59375 469.898438 121.84375 482.148438 136.902344 482.148438 L 192.230469 482.148438 L 184.300781 487.949219 C 178.632812 492.097656 176.378906 499.089844 178.5625 505.761719 C 180.742188 512.4375 186.6875 516.75 193.710938 516.75 L 293.121094 516.75 C 300.140625 516.75 306.089844 512.4375 308.269531 505.761719 C 310.449219 499.089844 308.199219 492.097656 302.53125 487.949219 L 294.601562 482.148438 L 349.929688 482.148438 C 364.988281 482.148438 377.238281 469.898438 377.238281 454.839844 L 377.238281 307.890625 C 377.238281 292.832031 364.988281 280.582031 349.929688 280.582031 Z M 296.832031 495.742188 C 299.542969 497.726562 299.777344 500.671875 299.09375 502.765625 C 298.40625 504.859375 296.480469 507.09375 293.121094 507.09375 L 193.710938 507.09375 C 190.351562 507.09375 188.425781 504.859375 187.742188 502.765625 C 187.054688 500.671875 187.289062 497.726562 190 495.742188 L 208.582031 482.148438 L 278.25 482.148438 Z M 367.582031 454.839844 C 367.582031 464.574219 359.664062 472.492188 349.929688 472.492188 L 136.902344 472.492188 C 127.167969 472.492188 119.25 464.574219 119.25 454.839844 L 119.25 307.890625 C 119.25 298.160156 127.167969 290.238281 136.902344 290.238281 L 349.929688 290.238281 C 359.660156 290.238281 367.582031 298.160156 367.582031 307.890625 Z M 367.582031 454.839844 " fill-opacity="1" fill-rule="nonzero"/></g><path fill="#605c5d" d="M 211.695312 376.304688 C 210.460938 376.304688 209.222656 375.832031 208.28125 374.886719 C 206.394531 373.003906 206.394531 369.945312 208.28125 368.0625 L 223.042969 353.300781 L 208.28125 338.539062 C 206.394531 336.652344 206.394531 333.597656 208.28125 331.710938 C 210.164062 329.824219 213.222656 329.824219 215.109375 331.710938 L 233.285156 349.886719 C 235.167969 351.773438 235.167969 354.828125 233.28125 356.714844 L 215.109375 374.886719 C 214.164062 375.832031 212.929688 376.304688 211.695312 376.304688 Z M 211.695312 376.304688 " fill-opacity="1" fill-rule="nonzero"/><path fill="#605c5d" d="M 171.492188 376.304688 C 170.257812 376.304688 169.023438 375.832031 168.078125 374.886719 L 149.90625 356.714844 C 148.019531 354.828125 148.019531 351.773438 149.902344 349.886719 L 168.078125 331.710938 C 169.964844 329.824219 173.023438 329.828125 174.90625 331.710938 C 176.792969 333.597656 176.792969 336.652344 174.90625 338.539062 L 160.144531 353.300781 L 174.90625 368.0625 C 176.792969 369.949219 176.792969 373.003906 174.90625 374.890625 C 173.964844 375.832031 172.730469 376.304688 171.492188 376.304688 Z M 171.492188 376.304688 " fill-opacity="1" fill-rule="nonzero"/><path fill="#605c5d" d="M 183.796875 383.785156 C 183.34375 383.785156 182.890625 383.722656 182.4375 383.589844 C 179.878906 382.839844 178.410156 380.160156 179.160156 377.601562 L 194.183594 326.289062 C 194.933594 323.730469 197.621094 322.265625 200.175781 323.011719 C 202.734375 323.761719 204.199219 326.441406 203.449219 329 L 188.425781 380.3125 C 187.808594 382.417969 185.882812 383.785156 183.796875 383.785156 Z M 183.796875 383.785156 " fill-opacity="1" fill-rule="nonzero"/><path fill="#ffffff" d="M 339.988281 401.507812 L 146.839844 401.507812 C 144.171875 401.507812 142.011719 399.347656 142.011719 396.679688 C 142.011719 394.015625 144.171875 391.851562 146.839844 391.851562 L 339.988281 391.851562 C 342.652344 391.851562 344.816406 394.015625 344.816406 396.679688 C 344.8125 399.347656 342.652344 401.507812 339.988281 401.507812 Z M 339.988281 401.507812 " fill-opacity="1" fill-rule="nonzero"/><path fill="#ffffff" d="M 339.988281 423.042969 L 146.839844 423.042969 C 144.171875 423.042969 142.011719 420.878906 142.011719 418.214844 C 142.011719 415.550781 144.171875 413.386719 146.839844 413.386719 L 339.988281 413.386719 C 342.652344 413.386719 344.816406 415.550781 344.816406 418.214844 C 344.8125 420.878906 342.652344 423.042969 339.988281 423.042969 Z M 339.988281 423.042969 " fill-opacity="1" fill-rule="nonzero"/><path fill="#ffffff" d="M 339.988281 358.441406 L 248.96875 358.441406 C 246.304688 358.441406 244.144531 356.277344 244.144531 353.613281 C 244.144531 350.949219 246.304688 348.785156 248.96875 348.785156 L 339.988281 348.785156 C 342.652344 348.785156 344.8125 350.949219 344.8125 353.613281 C 344.8125 356.277344 342.652344 358.441406 339.988281 358.441406 Z M 339.988281 358.441406 " fill-opacity="1" fill-rule="nonzero"/><path fill="#ffffff" d="M 339.988281 379.976562 L 248.96875 379.976562 C 246.304688 379.976562 244.144531 377.8125 244.144531 375.148438 C 244.144531 372.480469 246.304688 370.320312 248.96875 370.320312 L 339.988281 370.320312 C 342.652344 370.320312 344.8125 372.480469 344.8125 375.148438 C 344.8125 377.8125 342.652344 379.976562 339.988281 379.976562 Z M 339.988281 379.976562 " fill-opacity="1" fill-rule="nonzero"/><path fill="#b1b9c6" d="M 414.476562 353.421875 L 392.988281 370.96875 C 388.179688 364.328125 381.71875 356.863281 374.585938 351.734375 C 373.214844 349.453125 371.328125 347.429688 368.941406 345.890625 L 362.597656 341.804688 C 351.148438 334.429688 339.054688 329.582031 334.246094 336.296875 C 331.414062 340.253906 333.390625 344.6875 336.84375 348.605469 L 328.558594 361.464844 C 323.179688 369.8125 325.585938 380.925781 333.933594 386.300781 L 340.277344 390.386719 C 342.425781 391.773438 344.761719 392.632812 347.136719 393.011719 C 357.605469 402.53125 373.339844 409.914062 387.433594 413.828125 C 412.945312 420.910156 421.679688 383.523438 414.476562 353.421875 Z M 414.476562 353.421875 " fill-opacity="1" fill-rule="nonzero"/><path fill="#678490" d="M 414.933594 339.402344 C 413.875 336.953125 411.035156 335.824219 408.589844 336.878906 C 406.140625 337.933594 405.011719 340.777344 406.066406 343.222656 C 414.96875 363.863281 413.800781 393.300781 403.613281 404.980469 C 399.675781 409.492188 394.808594 410.863281 388.726562 409.175781 C 377.964844 406.183594 367.554688 401.535156 359.199219 396.128906 C 363.152344 394.390625 366.660156 391.523438 369.167969 387.628906 L 378.378906 373.332031 C 380.09375 370.667969 381.207031 367.742188 381.707031 364.707031 C 384.617188 367.894531 387.125 371.109375 389.078125 373.804688 C 390.023438 375.109375 391.496094 375.800781 392.992188 375.800781 C 393.972656 375.800781 394.964844 375.5 395.820312 374.882812 C 397.980469 373.316406 398.460938 370.300781 396.898438 368.140625 C 392.695312 362.339844 386.097656 354.308594 378.242188 348.449219 C 376.519531 345.835938 374.261719 343.582031 371.550781 341.835938 L 365.261719 337.785156 C 365.242188 337.773438 365.226562 337.757812 365.210938 337.742188 C 353.363281 330.113281 337.699219 323.183594 330.320312 333.488281 C 328.261719 336.363281 327.589844 339.714844 328.386719 343.183594 C 328.808594 345.035156 329.667969 346.925781 330.945312 348.839844 L 324.492188 358.855469 C 317.6875 369.421875 320.746094 383.554688 331.3125 390.363281 L 337.65625 394.449219 C 339.949219 395.925781 342.414062 396.929688 344.929688 397.503906 C 355.03125 406.28125 370.300781 414.074219 386.136719 418.480469 C 388.628906 419.171875 391.066406 419.511719 393.417969 419.511719 C 400.140625 419.511719 406.183594 416.71875 410.886719 411.328125 C 423.605469 396.746094 425.460938 363.808594 414.933594 339.402344 Z M 336.542969 382.246094 C 330.453125 378.324219 328.691406 370.175781 332.613281 364.082031 L 337.722656 356.15625 C 338.421875 356.746094 339.152344 357.339844 339.925781 357.933594 C 344.4375 361.402344 348.660156 363.714844 348.835938 363.8125 C 349.570312 364.210938 350.359375 364.402344 351.140625 364.402344 C 352.851562 364.402344 354.503906 363.492188 355.382812 361.886719 C 356.660156 359.546875 355.796875 356.613281 353.460938 355.335938 C 347.578125 352.117188 338.832031 345.550781 337.796875 341.023438 C 337.621094 340.253906 337.722656 339.734375 338.171875 339.109375 C 339.953125 336.625 347.386719 337.746094 359.980469 345.859375 C 359.980469 345.859375 359.980469 345.863281 359.980469 345.863281 L 359.976562 345.867188 L 366.320312 349.953125 C 369.269531 351.851562 371.304688 354.789062 372.046875 358.21875 C 372.792969 361.648438 372.15625 365.15625 370.257812 368.101562 L 361.046875 382.402344 C 357.125 388.492188 348.976562 390.253906 342.886719 386.332031 Z M 336.542969 382.246094 " fill-opacity="1" fill-rule="nonzero"/><path fill="#b1b9c6" d="M 273.476562 276.808594 L 263.816406 269.464844 C 260.625 258.777344 248.589844 248.75 232.5625 244.714844 C 211.640625 239.445312 191.859375 246.378906 188.375 260.203125 C 184.890625 274.03125 199.027344 289.507812 219.949219 294.78125 C 223.101562 295.574219 226.222656 296.085938 229.269531 296.34375 C 230.390625 298.136719 231.832031 299.769531 233.617188 301.125 L 245.796875 310.386719 C 243.890625 315.246094 243.542969 320.089844 247.554688 322.839844 C 254.367188 327.511719 264.082031 318.824219 272.324219 307.984375 L 276.890625 301.980469 C 282.890625 294.085938 281.367188 282.8125 273.476562 276.808594 Z M 273.476562 276.808594 " fill-opacity="1" fill-rule="nonzero"/><path fill="#678490" d="M 285.171875 288.035156 C 284.355469 282 281.238281 276.648438 276.394531 272.964844 L 267.925781 266.527344 C 263.53125 254.511719 250.332031 244.21875 233.738281 240.027344 C 222.714844 237.253906 211.558594 237.507812 202.332031 240.742188 C 192.402344 244.222656 185.785156 250.714844 183.699219 259.023438 C 179.5 275.683594 194.90625 293.445312 218.777344 299.460938 C 221.375 300.117188 223.988281 300.597656 226.570312 300.914062 C 227.738281 302.402344 229.113281 303.769531 230.691406 304.96875 L 240.171875 312.175781 C 239.628906 314.410156 239.464844 316.480469 239.699219 318.367188 C 240.136719 321.898438 241.910156 324.820312 244.824219 326.820312 C 247.035156 328.335938 249.332031 329 251.65625 329 C 260.335938 329 269.441406 319.753906 276.167969 310.910156 C 276.179688 310.894531 276.183594 310.878906 276.199219 310.859375 L 280.730469 304.898438 C 284.410156 300.058594 285.988281 294.066406 285.171875 288.035156 Z M 226.34375 273.023438 C 222.453125 278.140625 221.066406 284.390625 221.976562 290.292969 C 221.695312 290.226562 221.414062 290.171875 221.136719 290.101562 C 203.136719 285.5625 190.28125 272.414062 193.0625 261.382812 C 194.335938 256.320312 198.761719 252.226562 205.527344 249.851562 C 212.988281 247.238281 222.171875 247.074219 231.378906 249.394531 C 238.363281 251.15625 244.667969 254.222656 249.558594 258.027344 C 248.371094 258.003906 247.175781 258.066406 245.976562 258.230469 C 239.945312 259.054688 234.59375 262.175781 230.910156 267.019531 Z M 250.285156 318.859375 C 249.652344 318.421875 249.378906 317.96875 249.28125 317.183594 C 248.707031 312.578125 254.6875 303.417969 259.117188 298.390625 C 260.882812 296.390625 260.691406 293.339844 258.695312 291.574219 C 256.695312 289.8125 253.644531 290 251.878906 292 C 251.746094 292.152344 248.566406 295.765625 245.511719 300.566406 C 244.984375 301.386719 244.5 302.195312 244.042969 302.992188 L 236.535156 297.28125 C 230.769531 292.898438 229.644531 284.636719 234.03125 278.867188 L 238.597656 272.863281 C 240.722656 270.070312 243.804688 268.273438 247.28125 267.796875 C 250.761719 267.320312 254.21875 268.230469 257.011719 270.355469 L 270.550781 280.652344 C 273.339844 282.773438 275.132812 285.855469 275.605469 289.332031 C 276.078125 292.8125 275.167969 296.265625 273.046875 299.058594 L 268.480469 305.0625 L 268.484375 305.066406 C 259.414062 316.992188 252.808594 320.589844 250.285156 318.859375 Z M 250.285156 318.859375 " fill-opacity="1" fill-rule="nonzero"/><g clip-path="url(#47be5776a9)"><path fill="#dfeef7" d="M 212.203125 201.785156 C 213.554688 211.726562 209.136719 221.328125 201.308594 226.875 C 200.34375 227.5625 198.992188 227.242188 198.390625 226.21875 L 198.234375 225.949219 C 197.691406 225.027344 197.960938 223.855469 198.828125 223.234375 C 205.304688 218.628906 208.960938 210.675781 207.859375 202.429688 C 207.71875 201.375 208.398438 200.382812 209.4375 200.152344 L 209.734375 200.085938 C 210.894531 199.828125 212.042969 200.609375 212.203125 201.785156 " fill-opacity="1" fill-rule="nonzero"/></g><path fill="#dfeef7" d="M 203.605469 203.828125 C 204.125 209.832031 201.519531 215.558594 196.976562 219.136719 C 195.988281 219.914062 194.550781 219.675781 193.914062 218.589844 L 193.765625 218.339844 C 193.234375 217.433594 193.488281 216.300781 194.3125 215.648438 C 197.695312 212.949219 199.625 208.675781 199.230469 204.1875 C 199.144531 203.175781 199.859375 202.273438 200.84375 202.054688 L 201.125 201.992188 C 202.332031 201.726562 203.5 202.589844 203.605469 203.828125 " fill-opacity="1" fill-rule="nonzero"/><g clip-path="url(#86db754152)"><path fill="#dfeef7" d="M 87.113281 131.171875 C 89.742188 121.492188 97.550781 114.382812 106.917969 112.34375 C 108.074219 112.09375 109.195312 112.914062 109.347656 114.089844 L 109.386719 114.402344 C 109.527344 115.460938 108.824219 116.433594 107.78125 116.664062 C 100.027344 118.371094 93.5625 124.257812 91.363281 132.28125 C 91.082031 133.308594 90.074219 133.957031 89.027344 133.761719 L 88.722656 133.707031 C 87.558594 133.488281 86.804688 132.320312 87.113281 131.171875 " fill-opacity="1" fill-rule="nonzero"/></g><path fill="#dfeef7" d="M 95.820312 132.660156 C 97.6875 126.929688 102.3125 122.679688 107.890625 121.164062 C 109.101562 120.835938 110.332031 121.621094 110.5 122.867188 L 110.535156 123.160156 C 110.671875 124.199219 109.996094 125.140625 108.984375 125.417969 C 104.820312 126.578125 101.378906 129.757812 99.988281 134.042969 C 99.679688 135.007812 98.667969 135.558594 97.675781 135.375 L 97.394531 135.320312 C 96.175781 135.09375 95.4375 133.839844 95.820312 132.660156 " fill-opacity="1" fill-rule="nonzero"/><path fill="#fec108" d="M 200.058594 156.570312 L 192.472656 204.1875 C 191.53125 210.097656 185.988281 214.128906 180.089844 213.183594 L 106.605469 201.414062 C 100.707031 200.46875 96.691406 194.90625 97.632812 188.996094 L 105.21875 141.378906 C 105.609375 138.929688 106.789062 136.804688 108.457031 135.222656 C 110.8125 132.980469 114.144531 131.828125 117.601562 132.382812 L 191.085938 144.152344 C 194.539062 144.703125 197.347656 146.84375 198.890625 149.707031 C 199.988281 151.730469 200.449219 154.117188 200.058594 156.570312 " fill-opacity="1" fill-rule="nonzero"/><path fill="#feb60a" d="M 108.457031 135.222656 L 148.378906 187.3125 L 198.890625 149.707031 Z M 108.457031 135.222656 " fill-opacity="1" fill-rule="nonzero"/><path fill="#fdac01" d="M 98.800781 195.859375 L 149.933594 165.9375 L 189.234375 210.34375 C 186.875 212.585938 183.542969 213.738281 180.089844 213.183594 L 106.605469 201.414062 C 103.148438 200.859375 100.34375 198.722656 98.800781 195.859375 " fill-opacity="1" fill-rule="nonzero"/><path fill="#ffd54f" d="M 198.890625 149.707031 L 147.753906 179.628906 L 108.457031 135.222656 C 110.8125 132.980469 114.144531 131.828125 117.601562 132.382812 L 191.085938 144.152344 C 194.539062 144.703125 197.347656 146.84375 198.890625 149.707031 " fill-opacity="1" fill-rule="nonzero"/><g clip-path="url(#455d6abcdb)"><path fill="#f5554a" d="M 213.457031 141.882812 C 213.457031 130.214844 204.027344 120.761719 192.394531 120.761719 C 180.761719 120.761719 171.332031 130.214844 171.332031 141.882812 C 171.332031 153.546875 180.761719 163.003906 192.394531 163.003906 C 204.027344 163.003906 213.457031 153.546875 213.457031 141.882812 " fill-opacity="1" fill-rule="nonzero"/></g><path fill="#ffffff" d="M 191.226562 138.210938 C 190.890625 138.515625 190.527344 138.757812 190.132812 138.929688 C 189.734375 139.101562 189.269531 139.191406 188.730469 139.191406 C 188.425781 139.191406 188.144531 139.128906 187.886719 139.011719 C 187.625 138.898438 187.40625 138.738281 187.222656 138.539062 C 187.039062 138.339844 186.894531 138.117188 186.789062 137.863281 C 186.683594 137.605469 186.628906 137.335938 186.628906 137.050781 C 186.628906 136.765625 186.675781 136.519531 186.765625 136.3125 C 186.859375 136.101562 186.984375 135.921875 187.148438 135.769531 C 187.308594 135.617188 187.496094 135.480469 187.710938 135.355469 C 187.921875 135.234375 188.152344 135.109375 188.394531 134.976562 C 188.902344 134.640625 189.355469 134.300781 189.757812 133.953125 C 190.160156 133.605469 190.515625 133.28125 190.832031 132.984375 C 191.144531 132.683594 191.417969 132.425781 191.652344 132.210938 C 191.886719 132 192.089844 131.851562 192.261719 131.769531 C 192.363281 131.71875 192.457031 131.675781 192.542969 131.640625 C 192.628906 131.605469 192.71875 131.578125 192.808594 131.5625 C 192.902344 131.546875 193.003906 131.539062 193.113281 131.53125 C 193.226562 131.527344 193.367188 131.527344 193.539062 131.527344 C 194.066406 131.527344 194.488281 131.632812 194.796875 131.84375 C 195.105469 132.058594 195.339844 132.335938 195.496094 132.679688 C 195.65625 133.019531 195.753906 133.402344 195.792969 133.832031 C 195.835938 134.257812 195.855469 134.691406 195.855469 135.128906 L 195.855469 149.296875 C 195.855469 149.742188 195.835938 150.183594 195.792969 150.617188 C 195.753906 151.046875 195.65625 151.433594 195.496094 151.769531 C 195.339844 152.105469 195.105469 152.375 194.796875 152.585938 C 194.488281 152.792969 194.066406 152.898438 193.539062 152.898438 C 193.003906 152.898438 192.582031 152.792969 192.277344 152.585938 C 191.972656 152.375 191.742188 152.105469 191.585938 151.769531 C 191.425781 151.433594 191.328125 151.046875 191.289062 150.617188 C 191.246094 150.183594 191.226562 149.742188 191.226562 149.296875 L 191.226562 138.210938 " fill-opacity="1" fill-rule="nonzero"/></svg>